<svg id="svg" version="1.1" xmlns="http://www.w3.org/2000/svg" xmlns:xlink="http://www.w3.org/1999/xlink" width="400" height="94.81963656088962" viewBox="0, 0, 400,94.81963656088962"><g id="svgg"><path id="path0" d="M61.393 9.535 C 52.531 17.568,51.502 18.501,46.172 23.327 C 44.295 25.026,42.269 26.867,41.669 27.417 C 41.069 27.967,38.383 30.404,35.701 32.833 L 30.824 37.250 29.287 37.190 C 28.442 37.157,26.931 37.082,25.930 37.024 L 24.110 36.917 28.419 33.167 C 30.788 31.104,34.045 28.270,35.655 26.869 C 37.266 25.467,38.605 24.260,38.631 24.185 C 38.663 24.091,32.369 17.704,30.938 16.379 C 30.916 16.359,24.264 21.876,16.157 28.639 L 1.417 40.936 1.368 42.218 L 1.319 43.500 4.466 43.500 L 7.613 43.500 7.723 48.027 C 7.784 50.517,7.834 57.361,7.834 63.235 C 7.834 69.110,7.883 75.545,7.943 77.535 L 8.053 81.154 11.068 82.486 C 47.667 98.655,96.946 96.348,130.917 76.875 L 132.083 76.206 132.060 59.186 L 132.037 42.167 133.852 42.167 L 135.667 42.167 135.667 41.341 L 135.667 40.515 125.631 31.466 C 120.111 26.489,113.950 20.938,111.940 19.132 L 108.285 15.847 105.184 18.783 C 103.479 20.398,101.723 22.069,101.282 22.496 L 100.481 23.273 104.032 26.589 C 105.985 28.413,108.183 30.474,108.917 31.169 C 109.650 31.864,110.849 32.992,111.582 33.675 C 112.314 34.358,112.953 34.954,113.001 35.000 C 113.049 35.046,113.729 35.698,114.513 36.448 L 115.939 37.813 114.928 37.901 C 114.372 37.949,112.792 38.028,111.417 38.077 L 108.917 38.167 97.333 27.394 C 90.962 21.469,82.235 13.350,77.939 9.352 C 73.644 5.354,70.037 2.061,69.925 2.035 C 69.813 2.008,65.973 5.383,61.393 9.535 M106.409 15.708 L 105.750 16.417 106.458 15.758 C 107.117 15.145,107.243 15.000,107.117 15.000 C 107.090 15.000,106.771 15.319,106.409 15.708 M87.833 16.750 C 88.144 17.071,88.436 17.333,88.482 17.333 C 88.528 17.333,88.311 17.071,88.000 16.750 C 87.689 16.429,87.397 16.167,87.351 16.167 C 87.305 16.167,87.522 16.429,87.833 16.750 M103.410 18.542 L 102.583 19.417 103.458 18.590 C 104.271 17.821,104.410 17.667,104.285 17.667 C 104.259 17.667,103.865 18.060,103.410 18.542 M278.460 20.285 C 278.668 20.324,278.968 20.323,279.127 20.281 C 279.286 20.239,279.117 20.207,278.750 20.209 C 278.383 20.211,278.253 20.245,278.460 20.285 M308.625 20.284 C 308.831 20.324,309.169 20.324,309.375 20.284 C 309.581 20.245,309.412 20.212,309.000 20.212 C 308.587 20.212,308.419 20.245,308.625 20.284 M315.875 20.282 C 316.035 20.323,316.298 20.323,316.458 20.282 C 316.619 20.240,316.487 20.205,316.167 20.205 C 315.846 20.205,315.715 20.240,315.875 20.282 M377.958 20.284 C 378.165 20.324,378.502 20.324,378.708 20.284 C 378.915 20.245,378.746 20.212,378.333 20.212 C 377.921 20.212,377.752 20.245,377.958 20.284 M92.333 20.885 C 92.333 20.914,92.577 21.158,92.875 21.427 L 93.417 21.917 92.927 21.375 C 92.471 20.870,92.333 20.757,92.333 20.885 M99.991 21.792 L 99.417 22.417 100.042 21.842 C 100.623 21.308,100.743 21.167,100.616 21.167 C 100.588 21.167,100.307 21.448,99.991 21.792 M303.249 38.708 L 303.250 56.250 306.333 56.250 L 309.417 56.250 309.420 49.583 L 309.422 42.917 309.376 49.542 L 309.330 56.167 306.332 56.167 L 303.335 56.167 303.291 38.667 L 303.248 21.167 303.249 38.708 M361.000 23.719 C 361.000 23.748,361.244 23.991,361.542 24.260 L 362.083 24.750 361.594 24.208 C 361.138 23.703,361.000 23.590,361.000 23.719 M394.833 23.719 C 394.833 23.748,395.077 23.991,395.375 24.260 L 395.917 24.750 395.427 24.208 C 394.971 23.703,394.833 23.590,394.833 23.719 M100.167 24.885 C 100.167 24.914,100.410 25.158,100.708 25.427 L 101.250 25.917 100.760 25.375 C 100.304 24.870,100.167 24.757,100.167 24.885 M97.000 25.219 C 97.000 25.248,97.244 25.491,97.542 25.760 L 98.083 26.250 97.594 25.708 C 97.138 25.203,97.000 25.090,97.000 25.219 M349.375 25.282 C 349.535 25.323,349.798 25.323,349.958 25.282 C 350.119 25.240,349.988 25.205,349.667 25.205 C 349.346 25.205,349.215 25.240,349.375 25.282 M280.627 25.785 C 280.834 25.824,281.134 25.823,281.294 25.781 C 281.453 25.739,281.283 25.707,280.917 25.709 C 280.550 25.711,280.420 25.745,280.627 25.785 M310.794 25.785 C 311.001 25.824,311.301 25.823,311.460 25.781 C 311.620 25.739,311.450 25.707,311.083 25.709 C 310.717 25.711,310.586 25.745,310.794 25.785 M380.127 25.785 C 380.334 25.824,380.634 25.823,380.794 25.781 C 380.953 25.739,380.783 25.707,380.417 25.709 C 380.050 25.711,379.920 25.745,380.127 25.785 M309.408 31.583 C 309.408 34.792,309.431 36.081,309.458 34.448 C 309.485 32.815,309.485 30.190,309.458 28.614 C 309.431 27.039,309.408 28.375,309.408 31.583 M378.742 31.917 C 378.742 35.308,378.764 36.672,378.791 34.947 C 378.819 33.223,378.819 30.448,378.791 28.781 C 378.764 27.114,378.742 28.525,378.742 31.917 M159.906 30.417 C 159.906 32.892,159.929 33.927,159.958 32.718 C 159.986 31.509,159.986 29.484,159.958 28.218 C 159.930 26.952,159.906 27.942,159.906 30.417 M103.167 27.750 C 103.478 28.071,103.770 28.333,103.815 28.333 C 103.861 28.333,103.644 28.071,103.333 27.750 C 103.022 27.429,102.730 27.167,102.685 27.167 C 102.639 27.167,102.856 27.429,103.167 27.750 M214.883 30.000 C 214.883 30.504,214.915 30.710,214.953 30.458 C 214.991 30.206,214.991 29.794,214.953 29.542 C 214.915 29.290,214.883 29.496,214.883 30.000 M105.833 30.250 C 106.144 30.571,106.436 30.833,106.482 30.833 C 106.528 30.833,106.311 30.571,106.000 30.250 C 105.689 29.929,105.397 29.667,105.351 29.667 C 105.305 29.667,105.522 29.929,105.833 30.250 M292.048 31.750 C 292.049 32.208,292.081 32.376,292.120 32.123 C 292.158 31.869,292.157 31.494,292.117 31.289 C 292.078 31.084,292.046 31.292,292.048 31.750 M108.167 32.385 C 108.167 32.414,108.410 32.658,108.708 32.927 L 109.250 33.417 108.760 32.875 C 108.304 32.370,108.167 32.257,108.167 32.385 M83.333 35.917 L 83.333 39.167 73.000 39.167 L 62.667 39.167 62.667 45.000 L 62.667 50.833 71.833 50.833 L 81.000 50.833 81.000 54.083 L 81.000 57.333 71.833 57.333 L 62.667 57.333 62.667 64.250 L 62.667 71.167 73.750 71.167 L 84.833 71.167 84.833 74.417 L 84.833 77.667 70.000 77.667 L 55.167 77.667 55.167 55.167 L 55.167 32.667 69.250 32.667 L 83.333 32.667 83.333 35.917 M108.987 36.375 C 109.316 36.747,109.519 36.828,110.071 36.805 L 110.750 36.777 110.083 36.710 C 109.717 36.673,109.229 36.480,109.000 36.280 L 108.583 35.917 108.987 36.375 M332.539 37.000 C 332.539 37.321,332.573 37.452,332.615 37.292 C 332.657 37.131,332.657 36.869,332.615 36.708 C 332.573 36.548,332.539 36.679,332.539 37.000 M283.875 37.948 C 284.035 37.990,284.298 37.990,284.458 37.948 C 284.619 37.906,284.487 37.872,284.167 37.872 C 283.846 37.872,283.715 37.906,283.875 37.948 M383.542 37.948 C 383.702 37.990,383.965 37.990,384.125 37.948 C 384.285 37.906,384.154 37.872,383.833 37.872 C 383.512 37.872,383.381 37.906,383.542 37.948 M395.240 39.542 L 394.750 40.083 395.292 39.594 C 395.797 39.138,395.910 39.000,395.781 39.000 C 395.752 39.000,395.509 39.244,395.240 39.542 M332.539 39.667 C 332.539 39.987,332.573 40.119,332.615 39.958 C 332.657 39.798,332.657 39.535,332.615 39.375 C 332.573 39.215,332.539 39.346,332.539 39.667 M159.908 45.500 C 159.908 48.387,159.930 49.569,159.958 48.125 C 159.986 46.681,159.986 44.319,159.958 42.875 C 159.930 41.431,159.908 42.612,159.908 45.500 M284.375 43.448 C 284.535 43.490,284.798 43.490,284.958 43.448 C 285.119 43.406,284.987 43.372,284.667 43.372 C 284.346 43.372,284.215 43.406,284.375 43.448 M383.875 43.448 C 384.035 43.490,384.298 43.490,384.458 43.448 C 384.619 43.406,384.488 43.372,384.167 43.372 C 383.846 43.372,383.715 43.406,383.875 43.448 M133.371 46.875 L 133.409 50.250 133.458 46.964 L 133.507 43.678 135.295 43.624 L 137.083 43.571 135.208 43.535 L 133.333 43.500 133.371 46.875 M378.706 49.788 L 378.667 56.159 375.542 56.209 L 372.417 56.258 375.547 56.296 C 377.930 56.324,378.696 56.283,378.757 56.124 C 378.801 56.009,378.817 53.103,378.792 49.666 L 378.746 43.417 378.706 49.788 M349.125 51.454 C 349.423 51.491,349.910 51.491,350.208 51.454 C 350.506 51.417,350.262 51.387,349.667 51.387 C 349.071 51.387,348.827 51.417,349.125 51.454 M361.500 52.417 C 361.095 52.829,360.801 53.167,360.847 53.167 C 360.893 53.167,361.262 52.829,361.667 52.417 C 362.072 52.004,362.365 51.667,362.319 51.667 C 362.274 51.667,361.905 52.004,361.500 52.417 M6.406 58.333 C 6.406 60.854,6.430 61.885,6.458 60.625 C 6.486 59.365,6.486 57.302,6.458 56.042 C 6.430 54.781,6.406 55.813,6.406 58.333 M178.833 56.208 C 178.833 56.277,180.291 56.333,182.073 56.333 C 183.856 56.333,185.348 56.277,185.391 56.208 C 185.433 56.140,183.975 56.083,182.151 56.083 C 180.326 56.083,178.833 56.140,178.833 56.208 M209.583 56.167 L 206.250 56.261 209.625 56.297 C 211.788 56.320,213.000 56.273,213.000 56.167 C 213.000 56.075,212.981 56.016,212.958 56.036 C 212.935 56.056,211.417 56.115,209.583 56.167 M324.312 56.212 C 324.383 56.283,325.935 56.320,327.762 56.295 L 331.083 56.249 327.633 56.166 C 325.735 56.121,324.241 56.141,324.312 56.212 M159.542 56.292 C 162.819 56.317,168.181 56.317,171.458 56.292 C 174.735 56.266,172.054 56.246,165.500 56.246 C 158.946 56.246,156.265 56.266,159.542 56.292 M253.050 56.291 C 253.949 56.321,255.374 56.321,256.217 56.291 C 257.060 56.261,256.325 56.236,254.583 56.236 C 252.842 56.236,252.152 56.261,253.050 56.291 M274.550 56.291 C 275.449 56.321,276.874 56.321,277.717 56.291 C 278.560 56.261,277.825 56.236,276.083 56.236 C 274.342 56.236,273.652 56.261,274.550 56.291 M386.417 66.685 C 380.131 68.652,366.461 71.343,354.820 72.905 C 337.923 75.172,322.497 76.373,297.500 77.368 C 290.156 77.660,256.394 77.661,249.167 77.369 C 232.302 76.687,221.075 76.017,212.250 75.164 C 211.333 75.076,208.596 74.811,206.167 74.576 C 195.625 73.557,184.659 72.072,175.333 70.401 C 171.055 69.634,163.899 68.138,160.167 67.230 C 159.536 67.077,160.035 67.403,162.417 68.702 C 184.170 80.567,217.480 89.048,252.583 91.660 C 261.952 92.357,263.857 92.417,276.417 92.409 C 314.778 92.386,344.901 87.377,367.083 77.332 C 367.450 77.166,368.426 76.733,369.252 76.369 C 374.082 74.244,381.037 70.480,386.000 67.305 C 387.262 66.499,387.328 66.400,386.417 66.685 M133.565 72.583 C 133.565 73.775,133.592 74.241,133.624 73.618 C 133.656 72.996,133.656 72.021,133.623 71.451 C 133.591 70.882,133.564 71.392,133.565 72.583 M224.208 74.782 C 224.369 74.823,224.631 74.823,224.792 74.782 C 224.952 74.740,224.821 74.705,224.500 74.705 C 224.179 74.705,224.048 74.740,224.208 74.782 M321.960 74.785 C 322.168 74.824,322.468 74.823,322.627 74.781 C 322.786 74.739,322.617 74.707,322.250 74.709 C 321.883 74.711,321.753 74.745,321.960 74.785 M314.208 75.282 C 314.369 75.323,314.631 75.323,314.792 75.282 C 314.952 75.240,314.821 75.205,314.500 75.205 C 314.179 75.205,314.048 75.240,314.208 75.282 M235.375 75.448 C 235.535 75.490,235.798 75.490,235.958 75.448 C 236.119 75.406,235.987 75.372,235.667 75.372 C 235.346 75.372,235.215 75.406,235.375 75.448 M310.708 75.448 C 310.869 75.490,311.131 75.490,311.292 75.448 C 311.452 75.406,311.321 75.372,311.000 75.372 C 310.679 75.372,310.548 75.406,310.708 75.448 M238.794 75.618 C 239.001 75.658,239.301 75.656,239.460 75.615 C 239.620 75.573,239.450 75.540,239.083 75.542 C 238.717 75.544,238.586 75.578,238.794 75.618 M307.460 75.618 C 307.668 75.658,307.968 75.656,308.127 75.615 C 308.286 75.573,308.117 75.540,307.750 75.542 C 307.383 75.544,307.253 75.578,307.460 75.618 M246.875 75.955 C 247.219 75.991,247.781 75.991,248.125 75.955 C 248.469 75.919,248.188 75.889,247.500 75.889 C 246.813 75.889,246.531 75.919,246.875 75.955 M298.621 75.954 C 298.917 75.990,299.442 75.991,299.788 75.955 C 300.134 75.919,299.892 75.889,299.250 75.888 C 298.608 75.887,298.325 75.917,298.621 75.954 M252.460 76.118 C 252.668 76.158,252.968 76.156,253.127 76.115 C 253.286 76.073,253.117 76.040,252.750 76.042 C 252.383 76.044,252.253 76.078,252.460 76.118 M293.627 76.118 C 293.834 76.158,294.134 76.156,294.294 76.115 C 294.453 76.073,294.283 76.040,293.917 76.042 C 293.550 76.044,293.420 76.078,293.627 76.118 M259.216 76.291 C 259.931 76.322,261.056 76.322,261.716 76.290 C 262.376 76.259,261.792 76.233,260.417 76.233 C 259.042 76.234,258.501 76.259,259.216 76.291 M285.125 76.290 C 285.790 76.322,286.877 76.322,287.542 76.290 C 288.206 76.259,287.662 76.233,286.333 76.233 C 285.004 76.233,284.460 76.259,285.125 76.290 M6.568 79.083 C 6.568 80.642,6.593 81.302,6.624 80.550 C 6.655 79.798,6.655 78.523,6.624 77.717 C 6.594 76.910,6.568 77.525,6.568 79.083 M298.542 93.282 C 298.702 93.323,298.965 93.323,299.125 93.282 C 299.285 93.240,299.154 93.205,298.833 93.205 C 298.512 93.205,298.381 93.240,298.542 93.282 M295.042 93.448 C 295.202 93.490,295.465 93.490,295.625 93.448 C 295.785 93.406,295.654 93.372,295.333 93.372 C 295.012 93.372,294.881 93.406,295.042 93.448 M260.708 93.619 C 260.960 93.658,261.373 93.658,261.625 93.619 C 261.877 93.581,261.671 93.550,261.167 93.550 C 260.662 93.550,260.456 93.581,260.708 93.619 M291.628 93.621 C 291.928 93.658,292.378 93.657,292.628 93.619 C 292.878 93.581,292.633 93.551,292.083 93.552 C 291.533 93.553,291.328 93.584,291.628 93.621 M265.542 93.782 C 265.702 93.823,265.965 93.823,266.125 93.782 C 266.285 93.740,266.154 93.705,265.833 93.705 C 265.512 93.705,265.381 93.740,265.542 93.782 M286.127 93.785 C 286.334 93.824,286.634 93.823,286.794 93.781 C 286.953 93.739,286.783 93.707,286.417 93.709 C 286.050 93.711,285.920 93.745,286.127 93.785 M273.385 93.958 C 274.559 93.987,276.434 93.987,277.551 93.958 C 278.669 93.929,277.708 93.905,275.417 93.906 C 273.125 93.906,272.211 93.929,273.385 93.958 M53.375 94.282 C 53.535 94.323,53.798 94.323,53.958 94.282 C 54.119 94.240,53.987 94.205,53.667 94.205 C 53.346 94.205,53.215 94.240,53.375 94.282 M74.960 94.285 C 75.168 94.324,75.468 94.323,75.627 94.281 C 75.786 94.239,75.617 94.207,75.250 94.209 C 74.883 94.211,74.753 94.245,74.960 94.285 M59.792 94.621 C 60.090 94.658,60.577 94.658,60.875 94.621 C 61.173 94.584,60.929 94.553,60.333 94.553 C 59.737 94.553,59.494 94.584,59.792 94.621 M67.958 94.621 C 68.256 94.658,68.744 94.658,69.042 94.621 C 69.340 94.584,69.096 94.553,68.500 94.553 C 67.904 94.553,67.660 94.584,67.958 94.621 " stroke="none" fill="#639bfb" fill-rule="evenodd"></path><path id="path1" d="M68.752 1.041 C 66.065 3.467,51.020 17.102,50.333 17.733 C 49.921 18.113,48.083 19.781,46.250 21.439 C 42.987 24.391,34.664 31.935,31.811 34.526 L 30.373 35.833 29.006 35.833 C 28.254 35.833,27.664 35.766,27.694 35.684 C 27.725 35.603,30.656 33.010,34.208 29.923 C 37.760 26.836,40.667 24.259,40.667 24.196 C 40.667 24.133,38.501 21.917,35.854 19.271 L 31.042 14.461 15.516 27.413 L -0.009 40.365 0.037 42.641 L 0.083 44.917 3.208 44.962 L 6.333 45.007 6.340 46.629 C 6.383 56.298,6.656 81.878,6.718 81.940 C 7.725 82.947,20.583 87.857,26.667 89.557 C 61.214 99.214,103.012 94.572,131.906 77.870 L 133.562 76.913 133.530 65.998 C 133.512 59.995,133.450 52.477,133.391 49.292 L 133.284 43.500 135.142 43.500 L 137.000 43.500 137.000 41.696 L 137.000 39.892 132.375 35.728 C 125.430 29.474,114.284 19.423,111.094 16.539 L 108.272 13.986 107.094 15.129 C 106.172 16.024,101.393 20.547,98.871 22.910 L 98.492 23.266 105.604 29.925 L 112.717 36.583 111.089 36.718 L 109.462 36.852 108.273 35.726 C 106.773 34.306,105.077 32.723,103.581 31.343 C 102.941 30.752,101.891 29.777,101.248 29.176 C 100.605 28.575,99.555 27.600,98.914 27.009 C 98.274 26.419,97.224 25.444,96.581 24.843 C 95.938 24.242,94.926 23.300,94.331 22.750 C 91.805 20.414,88.490 17.330,87.250 16.162 C 86.517 15.472,84.904 13.973,83.667 12.831 C 80.728 10.119,79.544 9.020,77.920 7.495 C 77.185 6.805,75.496 5.235,74.167 4.006 C 72.837 2.777,71.335 1.373,70.828 0.886 L 69.906 -0.001 68.752 1.041 M77.939 9.352 C 82.235 13.350,90.962 21.469,97.333 27.394 L 108.917 38.167 111.417 38.077 C 112.792 38.028,114.372 37.949,114.928 37.901 L 115.939 37.813 114.513 36.448 C 113.729 35.698,113.049 35.046,113.001 35.000 C 112.953 34.954,112.314 34.358,111.582 33.675 C 110.849 32.992,109.650 31.864,108.917 31.169 C 108.183 30.474,105.985 28.413,104.032 26.589 L 100.481 23.273 101.282 22.496 C 101.723 22.069,103.479 20.398,105.184 18.783 L 108.285 15.847 111.940 19.132 C 113.950 20.938,120.111 26.489,125.631 31.466 L 135.667 40.515 135.667 41.341 L 135.667 42.167 133.852 42.167 L 132.037 42.167 132.060 59.186 L 132.083 76.206 130.917 76.875 C 111.684 87.900,84.296 94.152,59.491 93.180 C 41.340 92.469,25.993 89.080,11.068 82.486 L 8.053 81.154 7.943 77.535 C 7.883 75.545,7.834 69.110,7.834 63.235 C 7.834 57.361,7.784 50.517,7.723 48.027 L 7.613 43.500 4.466 43.500 L 1.319 43.500 1.368 42.218 L 1.417 40.936 16.157 28.639 C 24.264 21.876,30.916 16.359,30.938 16.379 C 32.369 17.704,38.663 24.091,38.631 24.185 C 38.605 24.260,37.266 25.467,35.655 26.869 C 34.045 28.270,30.788 31.104,28.419 33.167 L 24.110 36.917 25.930 37.024 C 26.931 37.082,28.442 37.157,29.287 37.190 L 30.824 37.250 35.701 32.833 C 38.383 30.404,41.069 27.967,41.669 27.417 C 42.269 26.867,44.295 25.026,46.172 23.327 C 51.502 18.501,52.531 17.568,61.393 9.535 C 65.973 5.383,69.813 2.008,69.925 2.035 C 70.037 2.061,73.644 5.354,77.939 9.352 M224.250 19.918 C 218.272 20.897,215.000 24.434,215.000 29.917 C 215.000 35.214,217.316 37.654,225.074 40.531 C 230.797 42.653,232.250 43.963,232.250 47.000 C 232.250 50.106,230.520 51.307,225.830 51.457 C 222.339 51.569,219.812 51.011,216.728 49.448 L 215.895 49.025 215.003 51.471 C 214.513 52.816,214.083 53.998,214.049 54.097 C 213.839 54.697,218.698 56.289,222.167 56.757 C 232.046 58.091,238.739 54.110,238.712 46.917 C 238.690 41.308,236.201 38.479,228.667 35.504 C 223.096 33.304,221.733 32.318,221.338 30.202 C 220.950 28.128,222.120 26.270,224.250 25.576 C 226.985 24.685,232.630 25.463,234.885 27.042 C 235.479 27.458,235.202 27.952,237.175 22.974 L 237.482 22.199 236.366 21.613 C 233.368 20.041,228.046 19.296,224.250 19.918 M346.771 19.924 C 338.634 21.255,333.391 27.340,332.668 36.292 C 331.761 47.523,337.640 55.628,347.583 56.855 C 360.125 58.403,368.813 47.777,366.398 33.844 C 364.740 24.278,356.383 18.351,346.771 19.924 M277.667 20.346 C 276.704 20.431,275.279 20.632,274.500 20.792 L 273.083 21.083 273.041 38.625 L 272.998 56.167 276.083 56.167 L 279.167 56.167 279.167 49.833 L 279.167 43.500 281.292 43.499 C 292.706 43.491,298.119 40.045,298.460 32.570 C 298.881 23.328,291.703 19.108,277.667 20.346 M308.167 20.331 C 307.296 20.406,306.133 20.547,305.583 20.645 C 305.033 20.742,304.302 20.871,303.958 20.932 L 303.333 21.044 303.333 38.605 L 303.333 56.167 306.333 56.167 L 309.333 56.167 309.333 49.500 L 309.333 42.833 312.415 42.833 L 315.496 42.833 316.456 44.042 C 318.702 46.870,321.768 51.500,323.417 54.556 C 324.381 56.341,323.941 56.183,327.804 56.129 L 331.015 56.083 330.199 54.417 C 328.644 51.242,325.692 46.552,323.145 43.208 L 321.844 41.500 322.439 41.251 C 327.228 39.250,329.576 33.970,328.158 28.391 C 326.566 22.128,319.638 19.335,308.167 20.331 M377.500 20.331 C 375.995 20.462,374.450 20.689,373.167 20.970 L 372.583 21.097 372.541 38.632 L 372.498 56.167 375.583 56.167 L 378.667 56.167 378.667 49.859 L 378.667 43.551 382.042 43.448 C 393.275 43.103,398.030 39.651,398.039 31.833 C 398.049 23.131,390.958 19.160,377.500 20.331 M153.779 20.610 C 153.717 20.672,153.667 28.697,153.667 38.444 L 153.667 56.167 165.500 56.167 L 177.333 56.167 177.333 53.501 L 177.333 50.836 168.625 50.793 L 159.917 50.750 159.917 45.500 L 159.917 40.250 167.125 40.207 L 174.333 40.163 174.333 37.498 L 174.333 34.833 167.083 34.833 L 159.833 34.833 159.833 30.417 L 159.833 26.000 168.004 26.000 L 176.175 26.000 176.129 23.292 L 176.083 20.583 164.987 20.540 C 158.884 20.517,153.841 20.548,153.779 20.610 M193.023 21.125 C 191.675 23.778,188.149 31.870,186.231 36.713 C 183.918 42.551,179.000 55.692,179.000 56.033 C 179.000 56.111,180.436 56.153,182.191 56.129 L 185.382 56.083 186.899 51.833 L 188.417 47.583 195.777 47.540 L 203.138 47.497 203.400 48.207 C 203.624 48.814,204.594 51.572,205.863 55.208 L 206.197 56.167 209.515 56.167 C 211.340 56.167,212.833 56.107,212.833 56.033 C 212.833 55.897,211.903 53.343,209.390 46.583 C 206.140 37.841,202.426 28.859,199.279 22.125 L 198.519 20.500 195.930 20.500 L 193.340 20.500 193.023 21.125 M239.000 20.688 C 239.000 21.260,245.096 31.849,249.359 38.682 L 251.500 42.114 251.500 49.140 L 251.500 56.167 254.583 56.167 L 257.667 56.167 257.667 48.993 L 257.667 41.820 259.112 39.535 C 262.581 34.049,269.202 22.694,270.138 20.625 C 270.169 20.556,268.653 20.500,266.769 20.500 L 263.343 20.500 261.846 23.458 C 259.688 27.722,255.099 35.816,254.699 36.064 C 254.418 36.237,249.770 28.154,247.403 23.375 L 245.980 20.500 242.490 20.500 C 240.011 20.500,239.000 20.554,239.000 20.688 M352.417 25.599 C 362.017 27.903,363.375 45.923,354.288 50.414 C 347.642 53.699,340.637 49.634,339.245 41.687 C 337.405 31.184,343.692 23.505,352.417 25.599 M287.250 26.074 C 290.558 26.833,292.109 28.743,292.063 32.000 C 292.003 36.326,289.133 37.987,281.708 37.997 L 279.167 38.000 279.167 31.927 L 279.167 25.853 279.792 25.776 C 281.134 25.610,286.091 25.808,287.250 26.074 M315.781 25.834 C 319.982 26.276,321.961 27.958,322.133 31.231 C 322.372 35.775,320.035 37.307,312.750 37.382 L 309.417 37.417 309.373 31.635 L 309.329 25.854 309.956 25.788 C 311.243 25.654,314.300 25.678,315.781 25.834 M387.069 26.159 C 390.404 27.022,391.813 28.905,391.622 32.240 C 391.385 36.378,389.060 37.764,382.042 37.952 L 378.667 38.042 378.667 31.948 L 378.667 25.853 379.292 25.776 C 380.881 25.579,385.754 25.818,387.069 26.159 M196.837 30.833 C 197.863 33.259,201.167 41.789,201.167 42.014 C 201.167 42.103,198.916 42.167,195.732 42.167 C 190.624 42.167,190.305 42.149,190.413 41.875 C 190.476 41.715,190.927 40.496,191.414 39.167 C 193.277 34.089,195.656 28.415,195.837 28.618 C 195.902 28.691,196.352 29.688,196.837 30.833 M387.417 64.945 C 373.280 69.448,347.271 73.267,318.917 75.003 C 283.482 77.173,240.236 76.641,210.583 73.670 C 209.667 73.578,207.717 73.387,206.250 73.245 C 188.749 71.549,172.318 68.870,159.163 65.567 C 155.944 64.759,155.635 64.719,155.335 65.081 C 154.871 65.641,155.271 66.053,157.702 67.521 C 181.306 81.774,217.985 91.064,260.417 93.536 C 265.334 93.823,287.263 93.821,292.917 93.534 C 335.484 91.369,365.240 83.124,389.083 66.885 C 390.944 65.618,391.291 65.006,390.472 64.433 C 389.993 64.097,390.169 64.068,387.417 64.945 M386.000 67.305 C 381.037 70.480,374.082 74.244,369.252 76.369 C 368.426 76.733,367.450 77.166,367.083 77.332 C 348.557 85.721,324.235 90.585,292.750 92.197 C 287.183 92.482,265.189 92.484,260.500 92.199 C 220.259 89.760,185.962 81.544,162.417 68.702 C 160.035 67.403,159.536 67.077,160.167 67.230 C 163.899 68.138,171.055 69.634,175.333 70.401 C 182.437 71.674,189.196 72.656,198.333 73.743 C 200.213 73.966,203.737 74.341,206.167 74.576 C 208.596 74.811,211.333 75.076,212.250 75.164 C 221.075 76.017,232.302 76.687,249.167 77.369 C 256.394 77.661,290.156 77.660,297.500 77.368 C 338.270 75.745,369.429 72.001,386.417 66.685 C 387.328 66.400,387.262 66.499,386.000 67.305 " stroke="none" fill="#040404" fill-rule="evenodd"></path><path id="path2" d="M0.000 20.083 C 0.000 31.129,0.034 40.167,0.076 40.167 C 0.118 40.167,5.387 35.799,11.785 30.461 C 18.182 25.123,25.104 19.348,27.167 17.628 C 29.229 15.908,30.954 14.500,31.001 14.500 C 31.047 14.500,33.277 16.694,35.955 19.375 L 40.824 24.250 35.787 28.615 C 33.017 31.015,30.599 33.115,30.413 33.281 C 30.228 33.447,29.567 34.026,28.943 34.566 C 27.646 35.691,27.682 35.827,29.279 35.831 L 30.307 35.833 31.529 34.721 C 33.699 32.744,35.657 30.968,40.500 26.585 C 43.112 24.220,45.925 21.672,46.750 20.922 C 47.575 20.172,49.188 18.708,50.333 17.669 C 51.479 16.629,53.092 15.165,53.917 14.415 C 54.742 13.664,56.696 11.895,58.259 10.484 C 64.535 4.816,68.125 1.555,68.917 0.799 L 69.750 0.004 34.875 0.002 L 0.000 0.000 0.000 20.083 M70.583 0.614 C 70.950 0.946,71.776 1.713,72.419 2.317 C 73.062 2.922,74.112 3.900,74.752 4.491 C 75.393 5.081,76.442 6.056,77.083 6.657 C 77.725 7.258,79.262 8.687,80.500 9.831 C 82.824 11.981,83.058 12.199,87.250 16.102 C 88.625 17.382,92.450 20.937,95.750 24.001 C 99.050 27.064,102.235 30.024,102.828 30.577 C 103.422 31.131,104.434 32.074,105.078 32.674 C 105.723 33.273,106.737 34.222,107.333 34.781 C 109.445 36.762,109.254 36.667,111.107 36.662 L 112.750 36.658 112.000 35.973 C 111.587 35.596,108.372 32.587,104.854 29.285 L 98.457 23.282 99.770 22.021 C 102.827 19.086,107.222 14.925,107.866 14.356 L 108.312 13.962 114.846 19.856 C 118.439 23.098,124.875 28.900,129.148 32.751 L 136.917 39.752 136.964 41.709 L 137.011 43.667 135.232 43.667 L 133.454 43.667 133.533 60.321 L 133.611 76.975 131.514 78.141 C 114.468 87.623,93.479 93.387,72.000 94.485 C 70.579 94.558,143.798 94.629,234.708 94.642 L 400.000 94.667 400.000 47.333 L 400.000 0.000 234.958 0.005 L 69.917 0.009 70.583 0.614 M231.884 20.070 C 234.000 20.495,236.292 21.338,237.212 22.029 C 237.489 22.237,237.444 22.408,236.507 24.734 C 235.313 27.696,235.517 27.455,234.638 26.941 C 230.147 24.317,223.028 24.760,221.648 27.750 C 220.295 30.682,222.120 32.895,227.667 35.052 C 236.246 38.388,238.741 41.062,238.737 46.917 C 238.733 53.473,234.238 56.888,225.583 56.908 C 222.140 56.917,221.715 56.873,219.055 56.237 C 217.102 55.770,214.000 54.495,214.000 54.160 C 214.000 53.996,215.779 49.165,215.874 49.070 C 215.910 49.034,216.459 49.262,217.095 49.577 C 223.541 52.768,231.361 51.967,232.178 48.031 C 232.875 44.672,231.124 42.832,225.083 40.576 C 218.056 37.952,215.790 35.952,215.053 31.722 C 213.589 23.333,221.358 17.955,231.884 20.070 M354.162 20.176 C 362.292 22.285,366.722 28.684,366.732 38.333 C 366.742 48.249,362.170 54.594,353.500 56.695 C 352.921 56.835,351.541 56.917,349.750 56.917 C 346.877 56.917,346.203 56.825,344.000 56.132 C 334.960 53.288,330.269 42.411,333.449 31.667 C 336.072 22.805,345.065 17.816,354.162 20.176 M287.417 20.414 C 294.980 21.655,298.417 25.223,298.417 31.833 C 298.417 39.869,293.270 43.500,281.880 43.500 L 279.167 43.500 279.167 49.917 L 279.167 56.333 276.083 56.333 L 273.000 56.333 273.000 38.678 L 273.000 21.024 273.958 20.821 C 277.050 20.167,284.533 19.941,287.417 20.414 M317.793 20.426 C 324.917 21.566,328.564 25.371,328.569 31.667 C 328.572 35.837,326.681 39.090,323.206 40.893 C 322.387 41.317,322.036 41.586,322.123 41.722 C 322.193 41.832,322.787 42.639,323.444 43.514 C 326.463 47.538,331.000 55.143,331.000 56.179 C 331.000 56.279,329.724 56.323,327.651 56.295 L 324.303 56.250 323.380 54.583 C 321.768 51.674,319.647 48.404,317.537 45.576 L 315.491 42.833 312.498 42.833 L 309.504 42.833 309.460 49.542 L 309.417 56.250 306.333 56.250 L 303.250 56.250 303.250 38.667 L 303.250 21.083 304.083 20.873 C 306.853 20.174,314.633 19.921,317.793 20.426 M386.986 20.415 C 394.363 21.523,398.066 25.311,398.064 31.750 C 398.061 39.684,393.388 43.171,382.377 43.453 L 378.837 43.544 378.794 49.897 L 378.750 56.250 375.624 56.295 L 372.498 56.341 372.541 38.712 L 372.583 21.083 373.417 20.873 C 376.148 20.184,383.741 19.927,386.986 20.415 M176.167 23.250 L 176.167 26.000 168.083 26.000 L 160.000 26.000 160.000 30.417 L 160.000 34.833 167.167 34.833 L 174.333 34.833 174.333 37.500 L 174.333 40.167 167.167 40.167 L 160.000 40.167 160.000 45.500 L 160.000 50.833 168.667 50.833 L 177.333 50.833 177.333 53.583 L 177.333 56.333 165.500 56.333 L 153.667 56.333 153.667 38.417 L 153.667 20.500 164.917 20.500 L 176.167 20.500 176.167 23.250 M198.914 21.208 C 199.086 21.598,199.558 22.629,199.965 23.500 C 202.688 29.339,205.866 37.044,208.981 45.362 C 210.879 50.427,213.000 56.192,213.000 56.283 C 213.000 56.310,211.496 56.333,209.657 56.333 L 206.315 56.333 205.982 55.581 C 205.698 54.939,203.830 49.713,203.286 48.040 L 203.110 47.497 195.784 47.540 L 188.458 47.583 187.804 49.417 C 187.123 51.326,186.180 53.985,185.678 55.417 L 185.385 56.250 182.109 56.295 C 180.307 56.320,178.833 56.308,178.833 56.269 C 178.833 56.172,180.161 52.562,182.362 46.673 C 185.833 37.387,188.599 30.584,191.244 24.833 C 191.856 23.504,192.551 21.985,192.789 21.458 L 193.223 20.500 195.913 20.500 L 198.603 20.500 198.914 21.208 M247.440 23.301 C 249.450 27.422,254.317 36.000,254.645 36.000 C 254.962 36.000,260.085 26.946,262.169 22.701 L 263.250 20.500 266.708 20.500 C 268.610 20.500,270.167 20.540,270.167 20.590 C 270.167 21.117,263.909 31.946,259.809 38.515 L 257.667 41.948 257.667 49.140 L 257.667 56.333 254.583 56.333 L 251.500 56.333 251.500 49.254 L 251.500 42.174 250.198 40.129 C 246.778 34.758,238.833 21.109,238.833 20.604 C 238.833 20.547,240.465 20.504,242.458 20.509 L 246.083 20.519 247.440 23.301 M347.417 25.493 C 345.486 25.911,343.356 27.103,342.213 28.405 C 337.936 33.278,337.955 43.521,342.250 48.298 C 345.352 51.749,351.461 52.385,355.444 49.672 C 362.473 44.885,361.780 30.070,354.353 26.338 C 352.707 25.511,349.269 25.092,347.417 25.493 M280.375 25.780 L 279.167 25.848 279.167 31.950 L 279.167 38.053 282.375 37.943 C 289.610 37.695,292.000 36.172,292.000 31.810 C 292.000 27.150,288.478 25.323,280.375 25.780 M310.625 25.779 L 309.500 25.849 309.500 31.700 L 309.500 37.552 312.309 37.442 C 320.107 37.135,322.098 35.941,322.075 31.583 C 322.052 27.098,318.494 25.295,310.625 25.779 M379.958 25.779 L 378.833 25.849 378.833 31.950 L 378.833 38.052 381.958 37.951 C 389.418 37.710,391.968 35.923,391.629 31.174 C 391.334 27.061,387.550 25.312,379.958 25.779 M195.272 29.625 C 193.520 33.755,190.501 41.557,190.500 41.958 C 190.500 42.121,191.681 42.167,195.851 42.167 C 200.880 42.167,201.195 42.149,201.087 41.875 C 201.023 41.715,200.724 40.908,200.422 40.083 C 199.621 37.894,196.778 30.755,196.225 29.541 L 195.750 28.500 195.272 29.625 M55.167 55.167 L 55.167 77.667 70.000 77.667 L 84.833 77.667 84.833 74.417 L 84.833 71.167 73.750 71.167 L 62.667 71.167 62.667 64.250 L 62.667 57.333 71.833 57.333 L 81.000 57.333 81.000 54.083 L 81.000 50.833 71.833 50.833 L 62.667 50.833 62.667 45.000 L 62.667 39.167 73.000 39.167 L 83.333 39.167 83.333 35.917 L 83.333 32.667 69.250 32.667 L 55.167 32.667 55.167 55.167 M0.000 69.833 L 0.000 94.667 29.708 94.642 C 46.451 94.628,58.326 94.560,56.917 94.486 C 39.235 93.561,21.409 89.235,8.000 82.616 L 6.583 81.917 6.482 71.167 C 6.427 65.254,6.370 56.948,6.357 52.708 L 6.333 45.000 3.167 45.000 L 0.000 45.000 0.000 69.833 M390.416 64.273 C 390.764 64.406,391.006 65.024,390.888 65.475 C 390.766 65.941,385.131 69.630,380.917 72.003 C 361.537 82.915,339.272 89.406,311.500 92.241 C 288.838 94.555,261.433 94.461,241.083 92.000 C 240.350 91.911,238.775 91.721,237.583 91.577 C 234.332 91.185,227.802 90.234,224.417 89.660 C 220.980 89.078,220.591 89.009,217.417 88.416 C 215.219 88.006,214.368 87.828,209.417 86.750 C 190.152 82.552,171.868 75.885,159.000 68.366 C 155.463 66.299,155.167 66.077,155.167 65.498 C 155.167 64.596,155.521 64.588,158.783 65.421 C 167.215 67.574,176.284 69.313,187.917 71.008 C 193.414 71.809,205.254 73.170,211.000 73.662 C 225.866 74.936,233.020 75.359,251.000 76.031 C 264.207 76.524,293.559 76.255,309.000 75.500 C 331.998 74.374,351.358 72.379,368.000 69.420 C 375.867 68.021,386.260 65.535,389.167 64.357 C 389.665 64.155,390.042 64.129,390.416 64.273 " stroke="none" fill="#fbfbfb" fill-rule="evenodd"></path></g></svg>